# xmcd
#
# Track frame offsets: 
#        150
#        14295
#        32965
#        46815
#        64000
#        79045
#        93602
#        109780
#        127445
#
# Disc length: 1832 seconds
#
# Revision: 2
# Processed by: cddbd v1.4PL0 Copyright (c) Steve Scherf et al.
# Submitted via: ExactAudioCopy v0.90b4
#
DISCID=77072609
DTITLE=Jim Stafford - The Best Of Jim Stafford
DYEAR=1997
DGENRE=Country
TTITLE0=Spiders and Snakes
TTITLE1=Undecided
TTITLE2=Nifty Fifties Blues
TTITLE3=Swamp Witch
TTITLE4=The Last Chant
TTITLE5=Your Bulldog Drinks Champagne
TTITLE6=A Real Good Time
TTITLE7=16 Little Red Noses And A Horse That Sweats
TTITLE8=I Ain't Sharin' Sharon
EXTD=YEAR: 1997 ID3G:   2
EXTT0=
EXTT1=
EXTT2=
EXTT3=
EXTT4=
EXTT5=
EXTT6=
EXTT7=
EXTT8=
PLAYORDER=
